{
  "accessors": [
    {
      "bufferView": 2,
      "componentType": 5126,
      "count": 40,
      "max": [
        45.08367156982422,
        1.651554822921753,
        28.844253540039063
      ],
      "min": [
        -45.08367156982422,
        -0.09489765763282776,
        -28.844253540039063
      ],
      "type": "VEC3"
    },
    {
      "bufferView": 2,
      "byteOffset": 480,
      "componentType": 5126,
      "count": 40,
      "max": [
        1.0,
        1.0,
        1.0
      ],
      "min": [
        -1.0,
        -1.0,
        -1.0
      ],
      "type": "VEC3"
    },
    {
      "bufferView": 3,
      "componentType": 5126,
      "count": 40,
      "max": [
        1.0,
        0.7071102857589722,
        1.0,
        1.0
      ],
      "min": [
        -0.11389422416687012,
        -0.7071103453636169,
        -1.0,
        1.0
      ],
      "type": "VEC4"
    },
    {
      "bufferView": 1,
      "componentType": 5126,
      "count": 40,
      "max": [
        0.9980778098106384,
        0.8005240559577942
      ],
      "min": [
        0.0012677311897277832,
        0.0010129213333129883
      ],
      "type": "VEC2"
    },
    {
      "bufferView": 0,
      "componentType": 5125,
      "count": 60,
      "type": "SCALAR"
    },
    {
      "bufferView": 2,
      "byteOffset": 960,
      "componentType": 5126,
      "count": 333,
      "max": [
        4.919604778289795,
        2.4326119422912598,
        7.7588114738464355
      ],
      "min": [
        -4.919604778289795,
        1.8263673782348633,
        -7.7588114738464355
      ],
      "type": "VEC3"
    },
    {
      "bufferView": 2,
      "byteOffset": 4956,
      "componentType": 5126,
      "count": 333,
      "max": [
        1.0,
        1.0,
        1.0
      ],
      "min": [
        -1.0,
        -1.0,
        -1.0
      ],
      "type": "VEC3"
    },
    {
      "bufferView": 3,
      "byteOffset": 640,
      "componentType": 5126,
      "count": 333,
      "max": [
        1.0,
        0.006481281016021967,
        1.0,
        1.0
      ],
      "min": [
        -0.9999790191650391,
        -0.0002497450332157314,
        -1.0,
        -1.0
      ],
      "type": "VEC4"
    },
    {
      "bufferView": 1,
      "byteOffset": 320,
      "componentType": 5126,
      "count": 333,
      "max": [
        0.9984680414199829,
        0.9987509250640869
      ],
      "min": [
        0.3682916760444641,
        0.8023316264152527
      ],
      "type": "VEC2"
    },
    {
      "bufferView": 0,
      "byteOffset": 240,
      "componentType": 5125,
      "count": 612,
      "type": "SCALAR"
    }
  ],
  "asset": {
    "extras": {
      "author": "Ludwig Battran (https://sketchfab.com/Ludwig_Battran)",
      "license": "CC-BY-4.0 (http://creativecommons.org/licenses/by/4.0/)",
      "source": "https://sketchfab.com/3d-models/ouija-board-1b9fbaef499a452da81d0d268b03afba",
      "title": "Ouija Board"
    },
    "generator": "Sketchfab-16.0.0",
    "version": "2.0"
  },
  "bufferViews": [
    {
      "buffer": 0,
      "byteLength": 2688,
      "name": "floatBufferViews",
      "target": 34963
    },
    {
      "buffer": 0,
      "byteLength": 2984,
      "byteOffset": 2688,
      "byteStride": 8,
      "name": "floatBufferViews",
      "target": 34962
    },
    {
      "buffer": 0,
      "byteLength": 8952,
      "byteOffset": 5672,
      "byteStride": 12,
      "name": "floatBufferViews",
      "target": 34962
    },
    {
      "buffer": 0,
      "byteLength": 5968,
      "byteOffset": 14624,
      "byteStride": 16,
      "name": "floatBufferViews",
      "target": 34962
    }
  ],
  "buffers": [
    {
      "byteLength": 20592,
      "uri": "scene.bin"
    }
  ],
  "images": [
    {
      "uri": "textures/ouija_baseColor.png"
    },
    {
      "uri": "textures/ouija_metallicRoughness.png"
    },
    {
      "uri": "textures/ouija_normal.png"
    }
  ],
  "materials": [
    {
      "doubleSided": true,
      "name": "ouija",
      "normalTexture": {
        "index": 2
      },
      "pbrMetallicRoughness": {
        "baseColorTexture": {
          "index": 0
        },
        "metallicRoughnessTexture": {
          "index": 1
        }
      }
    }
  ],
  "meshes": [
    {
      "name": "ouija_board_ouija_0",
      "primitives": [
        {
          "attributes": {
            "NORMAL": 1,
            "POSITION": 0,
            "TANGENT": 2,
            "TEXCOORD_0": 3
          },
          "indices": 4,
          "material": 0,
          "mode": 4
        }
      ]
    },
    {
      "name": "arrow_ouija_0",
      "primitives": [
        {
          "attributes": {
            "NORMAL": 6,
            "POSITION": 5,
            "TANGENT": 7,
            "TEXCOORD_0": 8
          },
          "indices": 9,
          "material": 0,
          "mode": 4
        }
      ]
    }
  ],
  "nodes": [
    {
      "children": [
        1
      ],
      "matrix": [
        1.0,
        0.0,
        0.0,
        0.0,
        0.0,
        2.220446049250313e-16,
        -1.0,
        0.0,
        0.0,
        1.0,
        2.220446049250313e-16,
        0.0,
        0.0,
        0.0,
        0.0,
        1.0
      ],
      "name": "Sketchfab_model"
    },
    {
      "children": [
        2
      ],
      "matrix": [
        0.009999999776482582,
        0.0,
        0.0,
        0.0,
        0.0,
        0.0,
        0.009999999776482582,
        0.0,
        0.0,
        -0.009999999776482582,
        0.0,
        0.0,
        0.0,
        0.0,
        0.0,
        1.0
      ],
      "name": "f401dcf623444594adecee6860f720dd.fbx"
    },
    {
      "children": [
        3,
        5
      ],
      "name": "RootNode"
    },
    {
      "children": [
        4
      ],
      "name": "ouija_board"
    },
    {
      "mesh": 0,
      "name": "ouija_board_ouija_0"
    },
    {
      "children": [
        6
      ],
      "name": "arrow"
    },
    {
      "mesh": 1,
      "name": "arrow_ouija_0"
    }
  ],
  "samplers": [
    {
      "magFilter": 9729,
      "minFilter": 9987,
      "wrapS": 10497,
      "wrapT": 10497
    }
  ],
  "scene": 0,
  "scenes": [
    {
      "name": "Sketchfab_Scene",
      "nodes": [
        0
      ]
    }
  ],
  "textures": [
    {
      "sampler": 0,
      "source": 0
    },
    {
      "sampler": 0,
      "source": 1
    },
    {
      "sampler": 0,
      "source": 2
    }
  ]
}
