{
  "accessors": [
    {
      "bufferView": 2,
      "componentType": 5126,
      "count": 4,
      "max": [
        0.75,
        0.550000011920929,
        0.0
      ],
      "min": [
        -0.766038715839386,
        -0.5,
        -7.010745317614919e-10
      ],
      "type": "VEC3"
    },
    {
      "bufferView": 2,
      "byteOffset": 48,
      "componentType": 5126,
      "count": 4,
      "max": [
        -4.624384208895549e-10,
        0.0,
        1.0
      ],
      "min": [
        -4.624384208895549e-10,
        0.0,
        1.0
      ],
      "type": "VEC3"
    },
    {
      "bufferView": 3,
      "componentType": 5126,
      "count": 4,
      "max": [
        -3.405980066872871e-07,
        1.0,
        -1.5750560448836974e-16,
        1.0
      ],
      "min": [
        -3.4423982242515194e-07,
        1.0,
        -1.591897177457481e-16,
        1.0
      ],
      "type": "VEC4"
    },
    {
      "bufferView": 1,
      "componentType": 5126,
      "count": 4,
      "max": [
        1.000000238418579,
        1.0000001192092896
      ],
      "min": [
        -1.1920928955078125e-07,
        -1.1920928955078125e-07
      ],
      "type": "VEC2"
    },
    {
      "bufferView": 0,
      "componentType": 5125,
      "count": 6,
      "type": "SCALAR"
    },
    {
      "bufferView": 2,
      "byteOffset": 96,
      "componentType": 5126,
      "count": 100,
      "max": [
        0.8591732978820801,
        0.6701832413673401,
        0.11112624406814575
      ],
      "min": [
        -0.8855146765708923,
        -0.6177785992622375,
        -0.011126317083835602
      ],
      "type": "VEC3"
    },
    {
      "bufferView": 2,
      "byteOffset": 1296,
      "componentType": 5126,
      "count": 100,
      "max": [
        0.9664711952209473,
        0.9664710760116577,
        0.992758572101593
      ],
      "min": [
        -0.9664711356163025,
        -0.9664710760116577,
        -1.0
      ],
      "type": "VEC3"
    },
    {
      "bufferView": 3,
      "byteOffset": 64,
      "componentType": 5126,
      "count": 100,
      "max": [
        1.0,
        0.992758572101593,
        0.8944272994995117,
        1.0
      ],
      "min": [
        -0.9927585124969482,
        -0.992758572101593,
        -0.9664711356163025,
        1.0
      ],
      "type": "VEC4"
    },
    {
      "bufferView": 1,
      "byteOffset": 32,
      "componentType": 5126,
      "count": 100,
      "max": [
        0.5954496264457703,
        0.9929034113883972
      ],
      "min": [
        0.012759286910295486,
        0.027038931846618652
      ],
      "type": "VEC2"
    },
    {
      "bufferView": 0,
      "byteOffset": 24,
      "componentType": 5125,
      "count": 270,
      "type": "SCALAR"
    }
  ],
  "asset": {
    "extras": {
      "author": "SebastianSosnowski (https://sketchfab.com/SebastianSosnowski)",
      "license": "CC-BY-4.0 (http://creativecommons.org/licenses/by/4.0/)",
      "source": "https://sketchfab.com/3d-models/portrait-of-adam-mickiewicz-7c3f2c94e43847b1b830070239f0e1d4",
      "title": "Portrait of Adam Mickiewicz"
    },
    "generator": "Sketchfab-12.67.0",
    "version": "2.0"
  },
  "bufferViews": [
    {
      "buffer": 0,
      "byteLength": 1104,
      "name": "floatBufferViews",
      "target": 34963
    },
    {
      "buffer": 0,
      "byteLength": 832,
      "byteOffset": 1104,
      "byteStride": 8,
      "name": "floatBufferViews",
      "target": 34962
    },
    {
      "buffer": 0,
      "byteLength": 2496,
      "byteOffset": 1936,
      "byteStride": 12,
      "name": "floatBufferViews",
      "target": 34962
    },
    {
      "buffer": 0,
      "byteLength": 1664,
      "byteOffset": 4432,
      "byteStride": 16,
      "name": "floatBufferViews",
      "target": 34962
    }
  ],
  "buffers": [
    {
      "byteLength": 6096,
      "uri": "scene.bin"
    }
  ],
  "images": [
    {
      "uri": "textures/Obraz01_baseColor.jpeg"
    },
    {
      "uri": "textures/Obraz01_metallicRoughness.png"
    },
    {
      "uri": "textures/Obraz01_normal.png"
    },
    {
      "uri": "textures/RamyLP_baseColor.jpeg"
    },
    {
      "uri": "textures/RamyLP_metallicRoughness.png"
    },
    {
      "uri": "textures/RamyLP_normal.png"
    }
  ],
  "materials": [
    {
      "doubleSided": true,
      "name": "Obraz01",
      "normalTexture": {
        "index": 2
      },
      "occlusionTexture": {
        "index": 1
      },
      "pbrMetallicRoughness": {
        "baseColorTexture": {
          "index": 0
        },
        "metallicFactor": 0.0,
        "metallicRoughnessTexture": {
          "index": 1
        }
      }
    },
    {
      "doubleSided": true,
      "name": "RamyLP",
      "normalTexture": {
        "index": 5
      },
      "occlusionTexture": {
        "index": 4
      },
      "pbrMetallicRoughness": {
        "baseColorTexture": {
          "index": 3
        },
        "metallicRoughnessTexture": {
          "index": 4
        }
      }
    }
  ],
  "meshes": [
    {
      "name": "Obraz01_ready_Obraz01_0",
      "primitives": [
        {
          "attributes": {
            "NORMAL": 1,
            "POSITION": 0,
            "TANGENT": 2,
            "TEXCOORD_0": 3
          },
          "indices": 4,
          "material": 0,
          "mode": 4
        }
      ]
    },
    {
      "name": "Obraz01_ready_RamyLP_0",
      "primitives": [
        {
          "attributes": {
            "NORMAL": 6,
            "POSITION": 5,
            "TANGENT": 7,
            "TEXCOORD_0": 8
          },
          "indices": 9,
          "material": 1,
          "mode": 4
        }
      ]
    }
  ],
  "nodes": [
    {
      "children": [
        1
      ],
      "matrix": [
        0.009508566930890083,
        0.0,
        0.0,
        0.0,
        0.0,
        2.111325987572706e-18,
        -0.009508566930890083,
        0.0,
        0.0,
        0.009508566930890083,
        2.111325987572706e-18,
        0.0,
        0.0,
        0.0,
        0.0,
        1.0
      ],
      "name": "Sketchfab_model"
    },
    {
      "children": [
        2
      ],
      "matrix": [
        1.0,
        0.0,
        0.0,
        0.0,
        0.0,
        0.0,
        1.0,
        0.0,
        0.0,
        -1.0,
        0.0,
        0.0,
        0.0,
        0.0,
        0.0,
        1.0
      ],
      "name": "7bb9ddca6f3e4b48ad01901172ac28b9.fbx"
    },
    {
      "children": [
        3
      ],
      "name": "RootNode"
    },
    {
      "children": [
        4
      ],
      "matrix": [
        100.0,
        0.0,
        0.0,
        0.0,
        0.0,
        2.220446049250313e-14,
        -100.0,
        0.0,
        0.0,
        100.0,
        2.220446049250313e-14,
        0.0,
        0.0,
        0.0,
        0.0,
        1.0
      ],
      "name": "Obraz01_ready"
    },
    {
      "children": [
        5,
        6
      ],
      "matrix": [
        6.123233995736766e-17,
        0.0,
        -1.0,
        0.0,
        -0.0,
        1.0,
        -0.0,
        0.0,
        1.0,
        0.0,
        6.123233995736766e-17,
        0.0,
        0.011126190423965454,
        -0.02620244026184082,
        -0.013170689344406128,
        1.0
      ],
      "name": "Object_4"
    },
    {
      "mesh": 0,
      "name": "Obraz01_ready_Obraz01_0"
    },
    {
      "mesh": 1,
      "name": "Obraz01_ready_RamyLP_0"
    }
  ],
  "samplers": [
    {
      "magFilter": 9729,
      "minFilter": 9987,
      "wrapS": 10497,
      "wrapT": 10497
    }
  ],
  "scene": 0,
  "scenes": [
    {
      "name": "Sketchfab_Scene",
      "nodes": [
        0
      ]
    }
  ],
  "textures": [
    {
      "sampler": 0,
      "source": 0
    },
    {
      "sampler": 0,
      "source": 1
    },
    {
      "sampler": 0,
      "source": 2
    },
    {
      "sampler": 0,
      "source": 3
    },
    {
      "sampler": 0,
      "source": 4
    },
    {
      "sampler": 0,
      "source": 5
    }
  ]
}
