{
  "accessors": [
    {
      "bufferView": 2,
      "componentType": 5126,
      "count": 65532,
      "max": [
        0.32806897163391113,
        0.8912501335144043,
        0.21927006542682648
      ],
      "min": [
        -0.31437990069389343,
        0.49014925956726074,
        -0.19785892963409424
      ],
      "type": "VEC3"
    },
    {
      "bufferView": 2,
      "byteOffset": 786384,
      "componentType": 5126,
      "count": 65532,
      "max": [
        0.9999995231628418,
        0.9999993443489075,
        0.9999996423721313
      ],
      "min": [
        -0.9999983906745911,
        -0.999976634979248,
        -0.9999998211860657
      ],
      "type": "VEC3"
    },
    {
      "bufferView": 1,
      "componentType": 5126,
      "count": 65532,
      "max": [
        0.9978009462356567,
        0.9979089498519897
      ],
      "min": [
        0.002089572371914983,
        0.010662317276000977
      ],
      "type": "VEC2"
    },
    {
      "bufferView": 1,
      "byteOffset": 524256,
      "componentType": 5126,
      "count": 65532,
      "max": [
        0.9978009462356567,
        0.9979089498519897
      ],
      "min": [
        0.002089572371914983,
        0.010662317276000977
      ],
      "type": "VEC2"
    },
    {
      "bufferView": 1,
      "byteOffset": 1048512,
      "componentType": 5126,
      "count": 65532,
      "max": [
        0.9978009462356567,
        0.9979089498519897
      ],
      "min": [
        0.002089572371914983,
        0.010662317276000977
      ],
      "type": "VEC2"
    },
    {
      "bufferView": 1,
      "byteOffset": 1572768,
      "componentType": 5126,
      "count": 65532,
      "max": [
        0.9978009462356567,
        0.9979089498519897
      ],
      "min": [
        0.002089572371914983,
        0.010662317276000977
      ],
      "type": "VEC2"
    },
    {
      "bufferView": 1,
      "byteOffset": 2097024,
      "componentType": 5126,
      "count": 65532,
      "max": [
        0.9978009462356567,
        0.9979089498519897
      ],
      "min": [
        0.002089572371914983,
        0.010662317276000977
      ],
      "type": "VEC2"
    },
    {
      "bufferView": 1,
      "byteOffset": 2621280,
      "componentType": 5126,
      "count": 65532,
      "max": [
        0.9978009462356567,
        0.9979089498519897
      ],
      "min": [
        0.002089572371914983,
        0.010662317276000977
      ],
      "type": "VEC2"
    },
    {
      "bufferView": 1,
      "byteOffset": 3145536,
      "componentType": 5126,
      "count": 65532,
      "max": [
        0.9978009462356567,
        0.9979089498519897
      ],
      "min": [
        0.002089572371914983,
        0.010662317276000977
      ],
      "type": "VEC2"
    },
    {
      "bufferView": 1,
      "byteOffset": 3669792,
      "componentType": 5126,
      "count": 65532,
      "max": [
        0.9978009462356567,
        0.9979089498519897
      ],
      "min": [
        0.002089572371914983,
        0.010662317276000977
      ],
      "type": "VEC2"
    },
    {
      "bufferView": 1,
      "byteOffset": 4194048,
      "componentType": 5126,
      "count": 65532,
      "max": [
        0.9978009462356567,
        0.9979089498519897
      ],
      "min": [
        0.002089572371914983,
        0.010662317276000977
      ],
      "type": "VEC2"
    },
    {
      "bufferView": 1,
      "byteOffset": 4718304,
      "componentType": 5126,
      "count": 65532,
      "max": [
        0.9978009462356567,
        0.9979089498519897
      ],
      "min": [
        0.002089572371914983,
        0.010662317276000977
      ],
      "type": "VEC2"
    },
    {
      "bufferView": 0,
      "componentType": 5125,
      "count": 366012,
      "type": "SCALAR"
    },
    {
      "bufferView": 2,
      "byteOffset": 1572768,
      "componentType": 5126,
      "count": 12524,
      "max": [
        0.32653355598449707,
        0.8903819918632507,
        0.19746629893779755
      ],
      "min": [
        -0.31606781482696533,
        0.49014925956726074,
        -0.19823504984378815
      ],
      "type": "VEC3"
    },
    {
      "bufferView": 2,
      "byteOffset": 1723056,
      "componentType": 5126,
      "count": 12524,
      "max": [
        0.9999644160270691,
        0.9999958276748657,
        0.999974250793457
      ],
      "min": [
        -0.9999971389770508,
        -0.9999561905860901,
        -0.9999943971633911
      ],
      "type": "VEC3"
    },
    {
      "bufferView": 1,
      "byteOffset": 5242560,
      "componentType": 5126,
      "count": 12524,
      "max": [
        0.9934729337692261,
        0.7327473163604736
      ],
      "min": [
        0.0020733275450766087,
        0.07227885723114014
      ],
      "type": "VEC2"
    },
    {
      "bufferView": 1,
      "byteOffset": 5342752,
      "componentType": 5126,
      "count": 12524,
      "max": [
        0.9934729337692261,
        0.7327473163604736
      ],
      "min": [
        0.0020733275450766087,
        0.07227885723114014
      ],
      "type": "VEC2"
    },
    {
      "bufferView": 1,
      "byteOffset": 5442944,
      "componentType": 5126,
      "count": 12524,
      "max": [
        0.9934729337692261,
        0.7327473163604736
      ],
      "min": [
        0.0020733275450766087,
        0.07227885723114014
      ],
      "type": "VEC2"
    },
    {
      "bufferView": 1,
      "byteOffset": 5543136,
      "componentType": 5126,
      "count": 12524,
      "max": [
        0.9934729337692261,
        0.7327473163604736
      ],
      "min": [
        0.0020733275450766087,
        0.07227885723114014
      ],
      "type": "VEC2"
    },
    {
      "bufferView": 1,
      "byteOffset": 5643328,
      "componentType": 5126,
      "count": 12524,
      "max": [
        0.9934729337692261,
        0.7327473163604736
      ],
      "min": [
        0.0020733275450766087,
        0.07227885723114014
      ],
      "type": "VEC2"
    },
    {
      "bufferView": 1,
      "byteOffset": 5743520,
      "componentType": 5126,
      "count": 12524,
      "max": [
        0.9934729337692261,
        0.7327473163604736
      ],
      "min": [
        0.0020733275450766087,
        0.07227885723114014
      ],
      "type": "VEC2"
    },
    {
      "bufferView": 1,
      "byteOffset": 5843712,
      "componentType": 5126,
      "count": 12524,
      "max": [
        0.9934729337692261,
        0.7327473163604736
      ],
      "min": [
        0.0020733275450766087,
        0.07227885723114014
      ],
      "type": "VEC2"
    },
    {
      "bufferView": 1,
      "byteOffset": 5943904,
      "componentType": 5126,
      "count": 12524,
      "max": [
        0.9934729337692261,
        0.7327473163604736
      ],
      "min": [
        0.0020733275450766087,
        0.07227885723114014
      ],
      "type": "VEC2"
    },
    {
      "bufferView": 1,
      "byteOffset": 6044096,
      "componentType": 5126,
      "count": 12524,
      "max": [
        0.9934729337692261,
        0.7327473163604736
      ],
      "min": [
        0.0020733275450766087,
        0.07227885723114014
      ],
      "type": "VEC2"
    },
    {
      "bufferView": 1,
      "byteOffset": 6144288,
      "componentType": 5126,
      "count": 12524,
      "max": [
        0.9934729337692261,
        0.7327473163604736
      ],
      "min": [
        0.0020733275450766087,
        0.07227885723114014
      ],
      "type": "VEC2"
    },
    {
      "bufferView": 0,
      "byteOffset": 1464048,
      "componentType": 5125,
      "count": 67977,
      "type": "SCALAR"
    }
  ],
  "asset": {
    "extras": {
      "author": "JFN (https://sketchfab.com/db4)",
      "license": "CC-BY-4.0 (http://creativecommons.org/licenses/by/4.0/)",
      "source": "https://sketchfab.com/3d-models/vintage-metal-trunkchestsuitcase-1scaniverse-4a87428205a347a29c4229de40fa9568",
      "title": "Vintage Metal Trunk/Chest/Suitcase 1(Scaniverse)"
    },
    "generator": "Sketchfab-16.16.0",
    "version": "2.0"
  },
  "bufferViews": [
    {
      "buffer": 0,
      "byteLength": 1735956,
      "name": "floatBufferViews",
      "target": 34963
    },
    {
      "buffer": 0,
      "byteLength": 6244480,
      "byteOffset": 1735956,
      "byteStride": 8,
      "name": "floatBufferViews",
      "target": 34962
    },
    {
      "buffer": 0,
      "byteLength": 1873344,
      "byteOffset": 7980436,
      "byteStride": 12,
      "name": "floatBufferViews",
      "target": 34962
    }
  ],
  "buffers": [
    {
      "byteLength": 9853780,
      "uri": "scene.bin"
    }
  ],
  "extensionsUsed": [
    "KHR_materials_unlit"
  ],
  "images": [
    {
      "uri": "textures/main_baseColor.jpeg"
    }
  ],
  "materials": [
    {
      "doubleSided": true,
      "extensions": {
        "KHR_materials_unlit": {}
      },
      "name": "main",
      "pbrMetallicRoughness": {
        "baseColorTexture": {
          "index": 0
        },
        "metallicFactor": 0.0
      }
    }
  ],
  "meshes": [
    {
      "name": "mesh_main_0",
      "primitives": [
        {
          "attributes": {
            "NORMAL": 1,
            "POSITION": 0,
            "TEXCOORD_0": 2,
            "TEXCOORD_1": 3,
            "TEXCOORD_2": 4,
            "TEXCOORD_3": 5,
            "TEXCOORD_4": 6,
            "TEXCOORD_5": 7,
            "TEXCOORD_6": 8,
            "TEXCOORD_7": 9,
            "TEXCOORD_8": 10,
            "TEXCOORD_9": 11
          },
          "indices": 12,
          "material": 0,
          "mode": 4
        }
      ]
    },
    {
      "name": "mesh_main_0",
      "primitives": [
        {
          "attributes": {
            "NORMAL": 14,
            "POSITION": 13,
            "TEXCOORD_0": 15,
            "TEXCOORD_1": 16,
            "TEXCOORD_2": 17,
            "TEXCOORD_3": 18,
            "TEXCOORD_4": 19,
            "TEXCOORD_5": 20,
            "TEXCOORD_6": 21,
            "TEXCOORD_7": 22,
            "TEXCOORD_8": 23,
            "TEXCOORD_9": 24
          },
          "indices": 25,
          "material": 0,
          "mode": 4
        }
      ]
    }
  ],
  "nodes": [
    {
      "children": [
        1
      ],
      "matrix": [
        1.0,
        0.0,
        0.0,
        0.0,
        0.0,
        2.220446049250313e-16,
        -1.0,
        0.0,
        0.0,
        1.0,
        2.220446049250313e-16,
        0.0,
        0.0,
        0.0,
        0.0,
        1.0
      ],
      "name": "Sketchfab_model"
    },
    {
      "children": [
        2
      ],
      "matrix": [
        1.0,
        0.0,
        0.0,
        0.0,
        0.0,
        0.0,
        1.0,
        0.0,
        0.0,
        -1.0,
        0.0,
        0.0,
        0.0,
        0.0,
        0.0,
        1.0
      ],
      "name": "7badc359bd90458b862872f328fdc71b.fbx"
    },
    {
      "children": [
        3
      ],
      "name": "RootNode"
    },
    {
      "children": [
        4,
        5
      ],
      "name": "mesh"
    },
    {
      "mesh": 0,
      "name": "mesh_main_0"
    },
    {
      "mesh": 1,
      "name": "mesh_main_0"
    }
  ],
  "samplers": [
    {
      "magFilter": 9729,
      "minFilter": 9987,
      "wrapS": 10497,
      "wrapT": 10497
    }
  ],
  "scene": 0,
  "scenes": [
    {
      "name": "Sketchfab_Scene",
      "nodes": [
        0
      ]
    }
  ],
  "textures": [
    {
      "sampler": 0,
      "source": 0
    }
  ]
}
