{
  "accessors": [
    {
      "bufferView": 2,
      "componentType": 5126,
      "count": 583,
      "max": [
        8.81367301940918,
        -1.6719393730163574,
        0.5309630632400513
      ],
      "min": [
        -5.268841743469238,
        -10.221564292907715,
        -5.267409324645996
      ],
      "type": "VEC3"
    },
    {
      "bufferView": 2,
      "byteOffset": 6996,
      "componentType": 5126,
      "count": 583,
      "max": [
        0.9993682503700256,
        1.0,
        0.9993682503700256
      ],
      "min": [
        -0.9993682503700256,
        -1.0,
        -0.9999858736991882
      ],
      "type": "VEC3"
    },
    {
      "bufferView": 3,
      "componentType": 5126,
      "count": 583,
      "max": [
        1.0,
        1.0,
        0.9993682503700256,
        1.0
      ],
      "min": [
        -0.9999971389770508,
        -0.9901862740516663,
        -0.7884764671325684,
        1.0
      ],
      "type": "VEC4"
    },
    {
      "bufferView": 1,
      "componentType": 5126,
      "count": 583,
      "max": [
        0.999500036239624,
        0.998906135559082
      ],
      "min": [
        0.0005000000237487257,
        0.0005000000237487257
      ],
      "type": "VEC2"
    },
    {
      "bufferView": 0,
      "componentType": 5125,
      "count": 1299,
      "type": "SCALAR"
    }
  ],
  "asset": {
    "extras": {
      "author": "Sophie (https://sketchfab.com/Sofi_EX)",
      "license": "CC-BY-4.0 (http://creativecommons.org/licenses/by/4.0/)",
      "source": "https://sketchfab.com/3d-models/voodoo-doll-e0245d6f01f141f9812582a9487c3062",
      "title": "Voodoo Doll"
    },
    "generator": "Sketchfab-12.68.0",
    "version": "2.0"
  },
  "bufferViews": [
    {
      "buffer": 0,
      "byteLength": 5196,
      "name": "floatBufferViews",
      "target": 34963
    },
    {
      "buffer": 0,
      "byteLength": 4664,
      "byteOffset": 5196,
      "byteStride": 8,
      "name": "floatBufferViews",
      "target": 34962
    },
    {
      "buffer": 0,
      "byteLength": 13992,
      "byteOffset": 9860,
      "byteStride": 12,
      "name": "floatBufferViews",
      "target": 34962
    },
    {
      "buffer": 0,
      "byteLength": 9328,
      "byteOffset": 23852,
      "byteStride": 16,
      "name": "floatBufferViews",
      "target": 34962
    }
  ],
  "buffers": [
    {
      "byteLength": 33180,
      "uri": "scene.bin"
    }
  ],
  "images": [
    {
      "uri": "textures/Voodoo_Doll_baseColor.jpeg"
    },
    {
      "uri": "textures/Voodoo_Doll_metallicRoughness.png"
    },
    {
      "uri": "textures/Voodoo_Doll_normal.png"
    }
  ],
  "materials": [
    {
      "doubleSided": true,
      "name": "Voodoo_Doll",
      "normalTexture": {
        "index": 2
      },
      "pbrMetallicRoughness": {
        "baseColorTexture": {
          "index": 0
        },
        "metallicRoughnessTexture": {
          "index": 1
        }
      }
    }
  ],
  "meshes": [
    {
      "name": "Sphere001_Voodoo Doll_0",
      "primitives": [
        {
          "attributes": {
            "NORMAL": 1,
            "POSITION": 0,
            "TANGENT": 2,
            "TEXCOORD_0": 3
          },
          "indices": 4,
          "material": 0,
          "mode": 4
        }
      ]
    }
  ],
  "nodes": [
    {
      "children": [
        1
      ],
      "matrix": [
        1.0,
        0.0,
        0.0,
        0.0,
        0.0,
        2.220446049250313e-16,
        -1.0,
        0.0,
        0.0,
        1.0,
        2.220446049250313e-16,
        0.0,
        0.0,
        0.0,
        0.0,
        1.0
      ],
      "name": "Sketchfab_model"
    },
    {
      "children": [
        2
      ],
      "matrix": [
        1.0,
        0.0,
        0.0,
        0.0,
        0.0,
        0.0,
        1.0,
        0.0,
        0.0,
        -1.0,
        0.0,
        0.0,
        0.0,
        0.0,
        0.0,
        1.0
      ],
      "name": "f0430f54bc534a1782fba82b9c9a8c5f.fbx"
    },
    {
      "children": [
        3
      ],
      "name": "RootNode"
    },
    {
      "children": [
        4
      ],
      "matrix": [
        0.7988771746587083,
        0.0,
        0.6014941893396142,
        0.0,
        0.6014941893396142,
        0.0,
        -0.7988771746587084,
        0.0,
        0.0,
        1.0,
        0.0,
        0.0,
        0.0,
        0.0,
        0.0,
        1.0
      ],
      "name": "Sphere001"
    },
    {
      "children": [
        5
      ],
      "matrix": [
        1.0,
        0.0,
        -0.0,
        0.0,
        0.0,
        1.0,
        0.0,
        0.0,
        0.0,
        0.0,
        1.0,
        0.0,
        -1.7724136114120483,
        5.946748733520508,
        2.36822509765625,
        1.0
      ],
      "name": "Object_4"
    },
    {
      "mesh": 0,
      "name": "Sphere001_Voodoo Doll_0"
    }
  ],
  "samplers": [
    {
      "magFilter": 9729,
      "minFilter": 9987,
      "wrapS": 10497,
      "wrapT": 10497
    }
  ],
  "scene": 0,
  "scenes": [
    {
      "name": "Sketchfab_Scene",
      "nodes": [
        0
      ]
    }
  ],
  "textures": [
    {
      "sampler": 0,
      "source": 0
    },
    {
      "sampler": 0,
      "source": 1
    },
    {
      "sampler": 0,
      "source": 2
    }
  ]
}
